<mxfile host="65bd71144e">
    <diagram id="r1_h_rcXceLFubJHl-dW" name="Page-1">
        <mxGraphModel dx="1189" dy="667" grid="1" gridSize="10" guides="1" tooltips="1" connect="1" arrows="1" fold="1" page="1" pageScale="1" pageWidth="850" pageHeight="1100" math="0" shadow="0">
            <root>
                <mxCell id="0"/>
                <mxCell id="1" parent="0"/>
                <mxCell id="2" value="Employee" style="whiteSpace=wrap;html=1;align=center;" parent="1" vertex="1">
                    <mxGeometry x="160" y="140" width="100" height="40" as="geometry"/>
                </mxCell>
                <mxCell id="3" value="Emp_name&lt;span style=&quot;color: rgba(0, 0, 0, 0); font-family: monospace; font-size: 0px; text-align: start;&quot;&gt;%3CmxGraphModel%3E%3Croot%3E%3CmxCell%20id%3D%220%22%2F%3E%3CmxCell%20id%3D%221%22%20parent%3D%220%22%2F%3E%3CmxCell%20id%3D%222%22%20value%3D%22Emp_id%22%20style%3D%22ellipse%3BwhiteSpace%3Dwrap%3Bhtml%3D1%3Balign%3Dcenter%3B%22%20vertex%3D%221%22%20parent%3D%221%22%3E%3CmxGeometry%20x%3D%22375%22%20y%3D%2240%22%20width%3D%22100%22%20height%3D%2240%22%20as%3D%22geometry%22%2F%3E%3C%2FmxCell%3E%3C%2Froot%3E%3C%2FmxGraphModel%3E&lt;/span&gt;" style="ellipse;whiteSpace=wrap;html=1;align=center;" parent="1" vertex="1">
                    <mxGeometry x="170" y="30" width="100" height="40" as="geometry"/>
                </mxCell>
                <mxCell id="6" value="" style="endArrow=none;html=1;entryX=0.5;entryY=1;entryDx=0;entryDy=0;" parent="1" target="3" edge="1">
                    <mxGeometry width="50" height="50" relative="1" as="geometry">
                        <mxPoint x="210" y="140" as="sourcePoint"/>
                        <mxPoint x="350" y="110" as="targetPoint"/>
                    </mxGeometry>
                </mxCell>
                <mxCell id="9" value="" style="endArrow=none;html=1;entryX=0.5;entryY=1;entryDx=0;entryDy=0;exitX=0.5;exitY=0;exitDx=0;exitDy=0;" parent="1" source="2" edge="1">
                    <mxGeometry width="50" height="50" relative="1" as="geometry">
                        <mxPoint x="220" y="150" as="sourcePoint"/>
                        <mxPoint x="325" y="80" as="targetPoint"/>
                    </mxGeometry>
                </mxCell>
                <mxCell id="14" value="Emp_id" style="ellipse;whiteSpace=wrap;html=1;align=center;fontStyle=4;" parent="1" vertex="1">
                    <mxGeometry x="275" y="40" width="100" height="40" as="geometry"/>
                </mxCell>
                <mxCell id="15" value="Emp_address&lt;span style=&quot;color: rgba(0, 0, 0, 0); font-family: monospace; font-size: 0px; text-align: start;&quot;&gt;%3CmxGraphModel%3E%3Croot%3E%3CmxCell%20id%3D%220%22%2F%3E%3CmxCell%20id%3D%221%22%20parent%3D%220%22%2F%3E%3CmxCell%20id%3D%222%22%20value%3D%22Emp_id%22%20style%3D%22ellipse%3BwhiteSpace%3Dwrap%3Bhtml%3D1%3Balign%3Dcenter%3B%22%20vertex%3D%221%22%20parent%3D%221%22%3E%3CmxGeometry%20x%3D%22375%22%20y%3D%2240%22%20width%3D%22100%22%20height%3D%2240%22%20as%3D%22geometry%22%2F%3E%3C%2FmxCell%3E%3C%2Froot%3E%3C%2FmxGraphModel%3E&lt;/span&gt;" style="ellipse;whiteSpace=wrap;html=1;align=center;" parent="1" vertex="1">
                    <mxGeometry x="60" y="40" width="100" height="40" as="geometry"/>
                </mxCell>
                <mxCell id="16" value="" style="endArrow=none;html=1;exitX=0.5;exitY=0;exitDx=0;exitDy=0;" parent="1" source="2" target="15" edge="1">
                    <mxGeometry width="50" height="50" relative="1" as="geometry">
                        <mxPoint x="220" y="150" as="sourcePoint"/>
                        <mxPoint x="230" y="80" as="targetPoint"/>
                    </mxGeometry>
                </mxCell>
                <mxCell id="17" value="has a" style="shape=rhombus;perimeter=rhombusPerimeter;whiteSpace=wrap;html=1;align=center;" parent="1" vertex="1">
                    <mxGeometry x="200" y="260" width="120" height="60" as="geometry"/>
                </mxCell>
                <mxCell id="56" value="admin" style="whiteSpace=wrap;html=1;align=center;" parent="1" vertex="1">
                    <mxGeometry x="130" y="585" width="100" height="40" as="geometry"/>
                </mxCell>
                <mxCell id="57" value="a_name&lt;span style=&quot;color: rgba(0, 0, 0, 0); font-family: monospace; font-size: 0px; text-align: start;&quot;&gt;%3CmxGraphModel%3E%3Croot%3E%3CmxCell%20id%3D%220%22%2F%3E%3CmxCell%20id%3D%221%22%20parent%3D%220%22%2F%3E%3CmxCell%20id%3D%222%22%20value%3D%22Emp_id%22%20style%3D%22ellipse%3BwhiteSpace%3Dwrap%3Bhtml%3D1%3Balign%3Dcenter%3B%22%20vertex%3D%221%22%20parent%3D%221%22%3E%3CmxGeometry%20x%3D%22375%22%20y%3D%2240%22%20width%3D%22100%22%20height%3D%2240%22%20as%3D%22geometry%22%2F%3E%3C%2FmxCell%3E%3C%2Froot%3E%3C%2FmxGraphModel%3E&lt;/span&gt;" style="ellipse;whiteSpace=wrap;html=1;align=center;" parent="1" vertex="1">
                    <mxGeometry x="141" y="475" width="100" height="40" as="geometry"/>
                </mxCell>
                <mxCell id="58" value="" style="endArrow=none;html=1;entryX=0.5;entryY=1;entryDx=0;entryDy=0;" parent="1" target="57" edge="1">
                    <mxGeometry width="50" height="50" relative="1" as="geometry">
                        <mxPoint x="180" y="585" as="sourcePoint"/>
                        <mxPoint x="320" y="555" as="targetPoint"/>
                    </mxGeometry>
                </mxCell>
                <mxCell id="59" value="" style="endArrow=none;html=1;entryX=0.5;entryY=1;entryDx=0;entryDy=0;exitX=0.5;exitY=0;exitDx=0;exitDy=0;" parent="1" source="56" edge="1">
                    <mxGeometry width="50" height="50" relative="1" as="geometry">
                        <mxPoint x="190" y="595" as="sourcePoint"/>
                        <mxPoint x="295" y="525" as="targetPoint"/>
                    </mxGeometry>
                </mxCell>
                <mxCell id="60" value="a_id" style="ellipse;whiteSpace=wrap;html=1;align=center;fontStyle=4;" parent="1" vertex="1">
                    <mxGeometry x="245" y="485" width="100" height="40" as="geometry"/>
                </mxCell>
                <mxCell id="61" value="a_address&lt;span style=&quot;color: rgba(0, 0, 0, 0); font-family: monospace; font-size: 0px; text-align: start;&quot;&gt;%3CmxGraphModel%3E%3Croot%3E%3CmxCell%20id%3D%220%22%2F%3E%3CmxCell%20id%3D%221%22%20parent%3D%220%22%2F%3E%3CmxCell%20id%3D%222%22%20value%3D%22Emp_id%22%20style%3D%22ellipse%3BwhiteSpace%3Dwrap%3Bhtml%3D1%3Balign%3Dcenter%3B%22%20vertex%3D%221%22%20parent%3D%221%22%3E%3CmxGeometry%20x%3D%22375%22%20y%3D%2240%22%20width%3D%22100%22%20height%3D%2240%22%20as%3D%22geometry%22%2F%3E%3C%2FmxCell%3E%3C%2Froot%3E%3C%2FmxGraphModel%3E&lt;/span&gt;" style="ellipse;whiteSpace=wrap;html=1;align=center;" parent="1" vertex="1">
                    <mxGeometry x="30" y="485" width="100" height="40" as="geometry"/>
                </mxCell>
                <mxCell id="62" value="" style="endArrow=none;html=1;exitX=0.5;exitY=0;exitDx=0;exitDy=0;" parent="1" source="56" target="61" edge="1">
                    <mxGeometry width="50" height="50" relative="1" as="geometry">
                        <mxPoint x="190" y="595" as="sourcePoint"/>
                        <mxPoint x="200" y="525" as="targetPoint"/>
                    </mxGeometry>
                </mxCell>
                <mxCell id="63" value="Create" style="shape=rhombus;perimeter=rhombusPerimeter;whiteSpace=wrap;html=1;align=center;" parent="1" vertex="1">
                    <mxGeometry x="375" y="570" width="115" height="70" as="geometry"/>
                </mxCell>
                <mxCell id="65" value="" style="endArrow=none;html=1;entryX=0;entryY=0.5;entryDx=0;entryDy=0;exitX=1;exitY=0.5;exitDx=0;exitDy=0;" parent="1" source="56" target="63" edge="1">
                    <mxGeometry width="50" height="50" relative="1" as="geometry">
                        <mxPoint x="240" y="550" as="sourcePoint"/>
                        <mxPoint x="290" y="500" as="targetPoint"/>
                    </mxGeometry>
                </mxCell>
                <mxCell id="66" value="Task" style="whiteSpace=wrap;html=1;align=center;" parent="1" vertex="1">
                    <mxGeometry x="610" y="585" width="100" height="40" as="geometry"/>
                </mxCell>
                <mxCell id="67" value="t_name&lt;span style=&quot;color: rgba(0, 0, 0, 0); font-family: monospace; font-size: 0px; text-align: start;&quot;&gt;%3CmxGraphModel%3E%3Croot%3E%3CmxCell%20id%3D%220%22%2F%3E%3CmxCell%20id%3D%221%22%20parent%3D%220%22%2F%3E%3CmxCell%20id%3D%222%22%20value%3D%22Emp_id%22%20style%3D%22ellipse%3BwhiteSpace%3Dwrap%3Bhtml%3D1%3Balign%3Dcenter%3B%22%20vertex%3D%221%22%20parent%3D%221%22%3E%3CmxGeometry%20x%3D%22375%22%20y%3D%2240%22%20width%3D%22100%22%20height%3D%2240%22%20as%3D%22geometry%22%2F%3E%3C%2FmxCell%3E%3C%2Froot%3E%3C%2FmxGraphModel%3E&lt;/span&gt;" style="ellipse;whiteSpace=wrap;html=1;align=center;" parent="1" vertex="1">
                    <mxGeometry x="620" y="475" width="100" height="40" as="geometry"/>
                </mxCell>
                <mxCell id="68" value="" style="endArrow=none;html=1;entryX=0.5;entryY=1;entryDx=0;entryDy=0;exitX=0.604;exitY=-0.028;exitDx=0;exitDy=0;exitPerimeter=0;" parent="1" source="66" target="67" edge="1">
                    <mxGeometry width="50" height="50" relative="1" as="geometry">
                        <mxPoint x="660" y="585.0000000000001" as="sourcePoint"/>
                        <mxPoint x="800" y="555" as="targetPoint"/>
                    </mxGeometry>
                </mxCell>
                <mxCell id="69" value="" style="endArrow=none;html=1;entryX=0.5;entryY=1;entryDx=0;entryDy=0;exitX=0.75;exitY=0;exitDx=0;exitDy=0;" parent="1" source="66" edge="1">
                    <mxGeometry width="50" height="50" relative="1" as="geometry">
                        <mxPoint x="670" y="595" as="sourcePoint"/>
                        <mxPoint x="775" y="525" as="targetPoint"/>
                    </mxGeometry>
                </mxCell>
                <mxCell id="70" value="t_id" style="ellipse;whiteSpace=wrap;html=1;align=center;fontStyle=4;" parent="1" vertex="1">
                    <mxGeometry x="725" y="485" width="100" height="40" as="geometry"/>
                </mxCell>
                <mxCell id="72" value="" style="endArrow=none;html=1;exitX=0.5;exitY=0;exitDx=0;exitDy=0;" parent="1" source="66" edge="1">
                    <mxGeometry width="50" height="50" relative="1" as="geometry">
                        <mxPoint x="670" y="595" as="sourcePoint"/>
                        <mxPoint x="582.3606797749981" y="522.8885438199984" as="targetPoint"/>
                    </mxGeometry>
                </mxCell>
                <mxCell id="73" value="" style="endArrow=none;html=1;exitX=1;exitY=0.5;exitDx=0;exitDy=0;" parent="1" edge="1">
                    <mxGeometry width="50" height="50" relative="1" as="geometry">
                        <mxPoint x="490.0000000000001" y="604.66" as="sourcePoint"/>
                        <mxPoint x="610" y="605" as="targetPoint"/>
                    </mxGeometry>
                </mxCell>
                <mxCell id="79" value="" style="endArrow=none;html=1;entryX=0.21;entryY=0.889;entryDx=0;entryDy=0;exitX=1;exitY=0.25;exitDx=0;exitDy=0;entryPerimeter=0;" parent="1" source="66" target="84" edge="1">
                    <mxGeometry width="50" height="50" relative="1" as="geometry">
                        <mxPoint x="670" y="595" as="sourcePoint"/>
                        <mxPoint x="784.8544793961789" y="579.2255678634515" as="targetPoint"/>
                    </mxGeometry>
                </mxCell>
                <mxCell id="80" value="" style="endArrow=none;html=1;entryX=0;entryY=1;entryDx=0;entryDy=0;exitX=1;exitY=0.75;exitDx=0;exitDy=0;" parent="1" source="66" target="85" edge="1">
                    <mxGeometry width="50" height="50" relative="1" as="geometry">
                        <mxPoint x="680.3999999999999" y="593.8800000000001" as="sourcePoint"/>
                        <mxPoint x="780" y="630" as="targetPoint"/>
                    </mxGeometry>
                </mxCell>
                <mxCell id="81" value="t_details" style="ellipse;whiteSpace=wrap;html=1;align=center;" parent="1" vertex="1">
                    <mxGeometry x="510" y="485" width="100" height="40" as="geometry"/>
                </mxCell>
                <mxCell id="84" value="t_assign_date" style="ellipse;whiteSpace=wrap;html=1;align=center;" parent="1" vertex="1">
                    <mxGeometry x="780" y="525" width="100" height="40" as="geometry"/>
                </mxCell>
                <mxCell id="85" value="t_finish_date" style="ellipse;whiteSpace=wrap;html=1;align=center;" parent="1" vertex="1">
                    <mxGeometry x="790" y="580" width="100" height="40" as="geometry"/>
                </mxCell>
                <mxCell id="86" value="t_status" style="ellipse;whiteSpace=wrap;html=1;align=center;" parent="1" vertex="1">
                    <mxGeometry x="780" y="650" width="100" height="40" as="geometry"/>
                </mxCell>
                <mxCell id="87" value="" style="endArrow=none;html=1;exitX=0.75;exitY=1;exitDx=0;exitDy=0;entryX=0;entryY=0;entryDx=0;entryDy=0;" parent="1" source="66" target="86" edge="1">
                    <mxGeometry width="50" height="50" relative="1" as="geometry">
                        <mxPoint x="720" y="605" as="sourcePoint"/>
                        <mxPoint x="790" y="640" as="targetPoint"/>
                    </mxGeometry>
                </mxCell>
                <mxCell id="89" value="View" style="shape=rhombus;perimeter=rhombusPerimeter;whiteSpace=wrap;html=1;align=center;fontColor=#f2eeee;" parent="1" vertex="1">
                    <mxGeometry x="600" y="670" width="120" height="60" as="geometry"/>
                </mxCell>
                <mxCell id="90" value="" style="endArrow=none;html=1;fontColor=#f2eeee;entryX=0.5;entryY=1;entryDx=0;entryDy=0;" parent="1" source="89" target="66" edge="1">
                    <mxGeometry width="50" height="50" relative="1" as="geometry">
                        <mxPoint x="590" y="675" as="sourcePoint"/>
                        <mxPoint x="640" y="625" as="targetPoint"/>
                    </mxGeometry>
                </mxCell>
                <mxCell id="93" value="Employee" style="whiteSpace=wrap;html=1;align=center;fontColor=#f2eeee;" parent="1" vertex="1">
                    <mxGeometry x="610" y="800" width="100" height="40" as="geometry"/>
                </mxCell>
                <mxCell id="94" value="" style="endArrow=none;html=1;fontColor=#f2eeee;entryX=0.5;entryY=1;entryDx=0;entryDy=0;exitX=0.5;exitY=0;exitDx=0;exitDy=0;" parent="1" source="93" target="89" edge="1">
                    <mxGeometry width="50" height="50" relative="1" as="geometry">
                        <mxPoint x="430" y="820" as="sourcePoint"/>
                        <mxPoint x="480" y="770" as="targetPoint"/>
                    </mxGeometry>
                </mxCell>
                <mxCell id="95" value="e_id" style="ellipse;whiteSpace=wrap;html=1;align=center;fontStyle=4;" parent="1" vertex="1">
                    <mxGeometry x="730" y="860" width="100" height="40" as="geometry"/>
                </mxCell>
                <mxCell id="96" value="e_name" style="ellipse;whiteSpace=wrap;html=1;align=center;" parent="1" vertex="1">
                    <mxGeometry x="625" y="870" width="100" height="40" as="geometry"/>
                </mxCell>
                <mxCell id="97" value="e_address" style="ellipse;whiteSpace=wrap;html=1;align=center;" parent="1" vertex="1">
                    <mxGeometry x="510" y="870" width="100" height="40" as="geometry"/>
                </mxCell>
                <mxCell id="101" value="" style="endArrow=none;html=1;fontColor=#f2eeee;exitX=0.25;exitY=1;exitDx=0;exitDy=0;" parent="1" source="93" target="97" edge="1">
                    <mxGeometry width="50" height="50" relative="1" as="geometry">
                        <mxPoint x="390" y="770" as="sourcePoint"/>
                        <mxPoint x="450" y="710" as="targetPoint"/>
                    </mxGeometry>
                </mxCell>
                <mxCell id="102" value="" style="endArrow=none;html=1;fontColor=#f2eeee;exitX=0.5;exitY=1;exitDx=0;exitDy=0;entryX=0.5;entryY=0;entryDx=0;entryDy=0;" parent="1" source="93" target="96" edge="1">
                    <mxGeometry width="50" height="50" relative="1" as="geometry">
                        <mxPoint x="400" y="780" as="sourcePoint"/>
                        <mxPoint x="358.0676368320976" y="812.2556639753097" as="targetPoint"/>
                    </mxGeometry>
                </mxCell>
                <mxCell id="103" value="" style="endArrow=none;html=1;fontColor=#f2eeee;exitX=0.5;exitY=0;exitDx=0;exitDy=0;entryX=0.75;entryY=1;entryDx=0;entryDy=0;" parent="1" source="95" target="93" edge="1">
                    <mxGeometry width="50" height="50" relative="1" as="geometry">
                        <mxPoint x="410" y="790" as="sourcePoint"/>
                        <mxPoint x="368.0676368320976" y="822.2556639753097" as="targetPoint"/>
                    </mxGeometry>
                </mxCell>
                <mxCell id="104" value="has" style="shape=rhombus;perimeter=rhombusPerimeter;whiteSpace=wrap;html=1;align=center;fontColor=#f2eeee;" parent="1" vertex="1">
                    <mxGeometry x="365" y="790" width="120" height="60" as="geometry"/>
                </mxCell>
                <mxCell id="105" value="" style="endArrow=none;html=1;fontColor=#f2eeee;entryX=0;entryY=0.5;entryDx=0;entryDy=0;exitX=1;exitY=0.5;exitDx=0;exitDy=0;" parent="1" source="104" target="93" edge="1">
                    <mxGeometry width="50" height="50" relative="1" as="geometry">
                        <mxPoint x="350" y="740" as="sourcePoint"/>
                        <mxPoint x="400" y="690" as="targetPoint"/>
                    </mxGeometry>
                </mxCell>
                <mxCell id="106" value="Department" style="whiteSpace=wrap;html=1;align=center;fontColor=#f2eeee;" parent="1" vertex="1">
                    <mxGeometry x="140" y="800" width="100" height="40" as="geometry"/>
                </mxCell>
                <mxCell id="107" value="" style="endArrow=none;html=1;fontColor=#f2eeee;exitX=1;exitY=0.5;exitDx=0;exitDy=0;" parent="1" source="106" target="104" edge="1">
                    <mxGeometry width="50" height="50" relative="1" as="geometry">
                        <mxPoint x="350" y="740" as="sourcePoint"/>
                        <mxPoint x="400" y="690" as="targetPoint"/>
                    </mxGeometry>
                </mxCell>
                <mxCell id="108" value="d_id" style="ellipse;whiteSpace=wrap;html=1;align=center;fontStyle=4;" parent="1" vertex="1">
                    <mxGeometry x="230" y="870" width="100" height="40" as="geometry"/>
                </mxCell>
                <mxCell id="109" value="" style="endArrow=none;html=1;fontColor=#f2eeee;exitX=0.75;exitY=1;exitDx=0;exitDy=0;" parent="1" source="106" edge="1">
                    <mxGeometry width="50" height="50" relative="1" as="geometry">
                        <mxPoint x="350" y="740" as="sourcePoint"/>
                        <mxPoint x="250" y="870" as="targetPoint"/>
                    </mxGeometry>
                </mxCell>
                <mxCell id="110" value="d_name" style="ellipse;whiteSpace=wrap;html=1;align=center;" parent="1" vertex="1">
                    <mxGeometry x="110" y="880" width="100" height="40" as="geometry"/>
                </mxCell>
                <mxCell id="111" value="d_details" style="ellipse;whiteSpace=wrap;html=1;align=center;" parent="1" vertex="1">
                    <mxGeometry x="10" y="840" width="100" height="40" as="geometry"/>
                </mxCell>
                <mxCell id="114" value="" style="endArrow=none;html=1;fontColor=#f2eeee;entryX=0.5;entryY=0;entryDx=0;entryDy=0;exitX=0.25;exitY=1;exitDx=0;exitDy=0;" parent="1" source="106" target="110" edge="1">
                    <mxGeometry width="50" height="50" relative="1" as="geometry">
                        <mxPoint x="350" y="740" as="sourcePoint"/>
                        <mxPoint x="400" y="690" as="targetPoint"/>
                    </mxGeometry>
                </mxCell>
                <mxCell id="117" value="" style="endArrow=none;html=1;fontColor=#f2eeee;entryX=0;entryY=0.5;entryDx=0;entryDy=0;exitX=1;exitY=0;exitDx=0;exitDy=0;" parent="1" source="111" target="106" edge="1">
                    <mxGeometry width="50" height="50" relative="1" as="geometry">
                        <mxPoint x="209.99999999999977" y="850" as="sourcePoint"/>
                        <mxPoint x="169.99999999999977" y="880" as="targetPoint"/>
                    </mxGeometry>
                </mxCell>
                <mxCell id="118" value="manage" style="shape=rhombus;perimeter=rhombusPerimeter;whiteSpace=wrap;html=1;align=center;fontColor=#f2eeee;" parent="1" vertex="1">
                    <mxGeometry x="120" y="690" width="120" height="60" as="geometry"/>
                </mxCell>
                <mxCell id="119" value="" style="endArrow=none;html=1;fontColor=#f2eeee;entryX=0.5;entryY=1;entryDx=0;entryDy=0;" parent="1" source="118" target="56" edge="1">
                    <mxGeometry width="50" height="50" relative="1" as="geometry">
                        <mxPoint x="350" y="740" as="sourcePoint"/>
                        <mxPoint x="400" y="690" as="targetPoint"/>
                    </mxGeometry>
                </mxCell>
                <mxCell id="120" value="" style="endArrow=none;html=1;fontColor=#f2eeee;exitX=0.5;exitY=1;exitDx=0;exitDy=0;" parent="1" source="118" edge="1">
                    <mxGeometry width="50" height="50" relative="1" as="geometry">
                        <mxPoint x="219.99999999999977" y="860" as="sourcePoint"/>
                        <mxPoint x="180" y="800" as="targetPoint"/>
                    </mxGeometry>
                </mxCell>
                <mxCell id="121" value="manage" style="rhombus;whiteSpace=wrap;html=1;" vertex="1" parent="1">
                    <mxGeometry x="392.5" y="670" width="80" height="80" as="geometry"/>
                </mxCell>
                <mxCell id="122" value="" style="endArrow=none;html=1;entryX=1;entryY=1;entryDx=0;entryDy=0;exitX=0;exitY=0.5;exitDx=0;exitDy=0;" edge="1" parent="1" source="121" target="56">
                    <mxGeometry width="50" height="50" relative="1" as="geometry">
                        <mxPoint x="480" y="750" as="sourcePoint"/>
                        <mxPoint x="530" y="700" as="targetPoint"/>
                        <Array as="points">
                            <mxPoint x="280" y="710"/>
                        </Array>
                    </mxGeometry>
                </mxCell>
                <mxCell id="123" value="" style="endArrow=none;html=1;entryX=0;entryY=0;entryDx=0;entryDy=0;exitX=1;exitY=0.5;exitDx=0;exitDy=0;" edge="1" parent="1" source="121" target="93">
                    <mxGeometry width="50" height="50" relative="1" as="geometry">
                        <mxPoint x="480" y="750" as="sourcePoint"/>
                        <mxPoint x="530" y="700" as="targetPoint"/>
                        <Array as="points">
                            <mxPoint x="580" y="720"/>
                        </Array>
                    </mxGeometry>
                </mxCell>
            </root>
        </mxGraphModel>
    </diagram>
</mxfile>